<svg width="314" height="202" viewBox="0 0 314 202" fill="none" xmlns="http://www.w3.org/2000/svg">
<path d="M270.18 11.7479C267.431 12.1726 263.222 13.5678 260.434 14.963C254.651 17.8544 250.991 20.6853 248.071 24.5676C244.564 29.2384 243.369 31.6042 239.728 41.2492C238.174 45.3742 237.643 48.3465 235.595 64.4418C235.329 66.4639 234.988 68.7892 234.836 69.598C234.666 70.4068 234.362 72.2671 234.173 73.7431C233.471 78.7578 232.239 84.0352 230.286 90.1822C228.864 94.6711 228.807 94.7924 226.304 99.3824C224.597 102.476 223.232 104.721 222.189 106.075C221.317 107.208 219.724 109.331 218.624 110.807C216.368 113.88 214.263 115.943 211.135 118.207C208.973 119.764 208.575 119.946 208.575 119.36C208.575 118.854 207.323 114.608 206.527 112.424C205.56 109.776 203.342 105.105 202.071 103.083C198.431 97.2795 193.975 92.8108 186.618 87.5333C182.882 84.8643 178.635 82.5996 172.928 80.1934C166.083 77.3221 162.935 76.2909 158.612 75.4821C154.914 74.8148 148.676 75.1181 146.002 76.1291C145.111 76.4729 145.168 76.574 144.865 74.4104C144.467 71.7009 143.158 65.0687 142.495 62.3794C140.143 52.9163 136.332 44.3025 134.095 43.3521C133.715 43.1904 133.166 42.9275 132.881 42.7658C131.933 42.1794 131.876 42.2198 128.729 44.9495C127.174 46.2841 125.372 48.5892 123.761 51.2987C123.002 52.5523 121.391 55.2416 120.139 57.2839C118.034 60.7415 115.266 66.3628 113.408 70.9932L112.782 72.5097L110.583 71.8424C105.842 70.3866 102.846 70.245 97.651 71.2561C96.2478 71.5189 94.712 71.7818 94.2379 71.8627C93.7639 71.9233 92.2849 72.3277 90.9576 72.7523L88.5306 73.5409L87.317 70.9932C86.1604 68.5465 81.5718 60.4585 79.486 57.1626C77.9691 54.7766 75.561 51.6829 73.6649 49.6406C71.7877 47.6388 69.2089 45.8999 68.1092 45.8999C67.0284 45.8999 65.6821 46.83 64.5255 48.387C62.9138 50.5303 62.2312 51.7031 62.0036 52.6332C61.8899 53.0983 61.5486 54.3519 61.2452 55.4034C58.5527 64.5632 57.5667 68.6274 56.0498 76.5537C54.8931 82.64 53.8123 89.3936 52.8263 96.8549C52.011 102.941 51.6697 106.581 51.2146 114.103C51.006 117.318 50.8164 119.967 50.7785 120.007C50.7406 120.027 48.5032 119.34 45.7917 118.45C38.4347 116.084 33.8081 114.649 32.405 114.345C30.414 113.9 26.3563 113.597 26.0529 113.86C25.7685 114.123 25.6926 114.972 25.9391 115.134C26.0339 115.195 28.1766 115.821 30.7364 116.549C33.2772 117.257 36.5196 118.228 37.9227 118.693C39.3259 119.138 42.4924 120.149 44.9384 120.937C50.6647 122.757 50.7216 122.777 50.7027 123.202C50.7027 123.384 50.6837 124.577 50.6647 125.83L50.6268 128.115L45.8486 127.367C38.776 126.275 35.5146 125.952 30.3382 125.83C25.6737 125.709 22.7916 125.911 22.2606 126.397C21.9573 126.659 21.9193 127.165 22.1658 127.569C22.4503 128.055 25.029 128.378 30.1486 128.601C37.1074 128.884 42.0184 129.308 48.1239 130.158L50.6268 130.501V131.634V132.746L46.4174 133.898C42.4545 134.99 31.6655 138.064 27.7025 139.257C25.5978 139.883 21.1609 141.622 20.5162 142.067C19.9474 142.472 20.0042 143.24 20.63 143.321C21.3695 143.442 25.1996 142.451 33.6564 139.964C41.9425 137.558 50.0011 135.273 50.3424 135.273C50.4751 135.273 50.6268 136.79 50.7785 139.358C50.8923 141.622 51.2146 145.242 51.4611 147.405C51.7076 149.569 52.011 152.339 52.1437 153.573C52.4661 157.05 52.8453 159.133 53.8882 163.278C54.4191 165.381 54.8742 167.585 54.8742 168.151C54.8931 169.425 55.2534 169.911 56.3721 170.234C56.9599 170.416 57.3202 170.416 57.6994 170.274C58.0786 170.113 79.9411 170.052 130.776 170.052C202.792 170.052 203.304 170.052 203.835 169.648C204.119 169.425 204.953 168.252 205.693 167.059C206.432 165.846 207.172 164.754 207.323 164.613C207.475 164.471 207.665 163.844 207.741 163.218C207.816 162.611 208.101 161.398 208.404 160.549C209.637 156.929 210.225 151.065 210.281 141.804C210.281 141.016 210.338 140.935 211.192 140.429C211.685 140.126 213.315 139.358 214.832 138.69C220.729 136.102 225.375 132.624 230.437 126.983C233.869 123.161 236.012 119.785 238.799 113.84C242.838 105.186 244.279 99.6857 247.825 79.3239C251.409 58.6184 253.475 49.7417 256.206 43.1499C257.988 38.8633 260.794 34.5159 263.051 32.5343C264.245 31.5031 266.843 30.027 268.588 29.4204C271.223 28.4903 274.598 28.2274 276.741 28.8138C279.68 29.6024 282.316 31.6649 282.979 33.6667C283.491 35.163 283.605 38.5802 283.188 40.218C282.79 41.8761 281.576 44.4643 280.723 45.455C279.585 46.8098 278.542 49.58 278.542 51.2785C278.542 52.1479 279.718 54.5744 280.723 55.7674C282.884 58.3151 286.696 58.5173 290.715 56.2729C294.944 53.9071 298.528 47.6995 299.893 40.3393C300.158 38.9644 300.234 37.5085 300.234 34.2733C300.253 30.2697 300.215 29.9057 299.722 27.9646C298.547 23.2937 297.617 21.1908 295.911 19.4518C294.716 18.2386 293.939 17.7129 289.9 15.3269C286.847 13.5475 285.425 13.042 281.747 12.4354C277.025 11.6468 272.532 11.3638 270.18 11.7479ZM115.968 86.6639C117.067 87.3311 118.091 88.605 118.736 90.162C119.058 90.8899 119.343 91.5369 119.381 91.5774C119.419 91.638 119.646 91.4763 119.893 91.2336C120.803 90.3035 122.282 89.9598 123.382 90.4046C124.69 90.9303 126.643 93.7612 127.572 96.4909C128.539 99.3419 129.335 104.033 129.62 108.481C129.866 112.424 129.165 118.632 128.084 122.029C127.458 124.051 126.984 124.637 126.131 124.476C125.676 124.415 125.467 124.455 125.391 124.678C125.088 125.527 122.87 125.891 121.789 125.305C120.879 124.779 120.405 124.071 119.57 121.887C118.3 118.612 117.959 116.65 117.466 109.695C117.086 104.255 117.105 102.395 117.579 98.432L117.997 95.0553L116.821 92.5479C116.157 91.1123 115.209 89.4745 114.621 88.7061C113.541 87.3109 113.37 86.7852 113.882 86.2595C114.242 85.8753 114.868 85.9966 115.968 86.6639ZM74.3854 87.4929C75.7506 88.1602 76.5849 89.1307 77.5899 91.2943L78.3862 92.9928L79.1068 92.2851C80.0169 91.4156 80.5478 91.1932 81.6476 91.1932C82.6525 91.1932 83.3162 91.5167 84.1126 92.4468C86.3879 95.0553 87.7532 99.0184 88.5685 105.509C89.289 111.211 88.8529 118.147 87.5067 122.717C86.8809 124.819 86.1983 125.669 85.3261 125.466C84.9658 125.386 84.7573 125.406 84.7573 125.547C84.7573 125.972 83.5437 126.579 82.7094 126.579C81.6855 126.579 80.8323 126.194 80.1686 125.446C79.5239 124.678 78.0449 120.836 77.6657 118.895C77.3054 117.014 76.8883 112.728 76.5849 107.673C76.3763 104.094 76.3763 103.608 76.7556 100.494C76.9831 98.6545 77.1158 96.6931 77.0589 96.1471C76.9262 94.8328 75.4662 91.5976 74.4802 90.4653C74.0631 89.98 73.2667 89.2723 72.7168 88.8881C71.5602 88.0591 71.4085 87.776 71.8067 87.1694C72.148 86.6436 72.6978 86.7043 74.3854 87.4929ZM107.17 133.777C107.852 134.161 108.402 135.091 108.573 136.143C108.668 136.85 108.573 137.194 107.776 138.893C106.392 141.784 105.634 142.553 104.212 142.553C103.264 142.553 102.695 142.269 101.709 141.299C100.438 140.065 100.059 139.014 100.059 136.85C100.059 134.889 100.154 134.667 101.311 134.04C102.733 133.251 105.975 133.11 107.17 133.777Z" fill="black"/>
<path d="M121.637 94.3071C121.353 95.0148 120.86 98.8971 120.651 102.072C120.518 103.972 120.822 109.331 121.372 114.709C121.656 117.661 121.827 118.571 122.339 119.967C122.661 120.876 123.002 121.706 123.059 121.786C123.135 121.887 123.325 121.665 123.457 121.281C123.666 120.755 123.742 118.147 123.818 109.29C123.894 100.596 123.969 97.8659 124.159 97.5019C124.443 96.9762 124.368 96.774 123.192 94.8733C122.756 94.1858 122.282 93.6196 122.149 93.6196C122.016 93.6196 121.789 93.9229 121.637 94.3071Z" fill="black"/>
<path d="M81.2115 94.6711C80.8891 95.0957 80.6237 96.2483 80.4909 97.6637C80.4341 98.3916 80.2444 100.07 80.0928 101.404C79.8273 103.588 79.8273 104.296 80.1117 108.481C80.453 113.86 80.8891 118.248 81.1546 119.279C81.2494 119.683 81.5907 120.695 81.8941 121.524C82.425 122.959 82.4629 123.02 82.6525 122.494C83.2024 120.957 83.2783 119.218 83.2024 109.391C83.1645 101.526 83.2024 99.2206 83.392 98.6342C83.6196 97.967 83.6006 97.8052 83.2214 97.0166C82.7284 95.9854 81.7045 94.4284 81.5338 94.4284C81.458 94.4284 81.3063 94.5498 81.2115 94.6711Z" fill="black"/>
</svg>
